<?xml version="1.0" encoding="UTF-8"?>
<svg id="Layer_6" data-name="Layer 6" xmlns="http://www.w3.org/2000/svg" xmlns:xlink="http://www.w3.org/1999/xlink" viewBox="0 0 79.91 22.11">
  <defs>
    <style>
      .cls-1 {
        fill: url(#linear-gradient);
      }

      .cls-2 {
        fill: #e64884;
      }

      .cls-3 {
        fill: #f1f0f1;
      }

      .cls-4 {
        fill: url(#linear-gradient-2);
      }
    </style>
    <linearGradient id="linear-gradient" x1="-3667.71" y1="93.04" x2="-3597.44" y2="93.04" gradientTransform="translate(3672.53 -87.98)" gradientUnits="userSpaceOnUse">
      <stop offset="0" stop-color="#f7cbe4"/>
      <stop offset=".14" stop-color="#e3c7e5"/>
      <stop offset=".44" stop-color="#afbde9"/>
      <stop offset=".85" stop-color="#5eadf0"/>
      <stop offset="1" stop-color="#3fa7f3"/>
    </linearGradient>
    <linearGradient id="linear-gradient-2" x1="-3672.53" y1="81.06" x2="-3592.62" y2="81.06" gradientTransform="translate(3672.53 -64.01)" xlink:href="#linear-gradient"/>
  </defs>
  <rect class="cls-1" x="4.82" y="0" width="70.28" height="10.13" rx="5.06" ry="5.06" transform="translate(79.91 10.13) rotate(-180)"/>
  <rect class="cls-4" x="0" y="11.98" width="79.91" height="10.13" rx="5.06" ry="5.06" transform="translate(79.91 34.09) rotate(180)"/>
  <g>
    <path class="cls-3" d="m15.41,6.41h-1.77l-.31.81h-1.6l2.04-4.67h1.55l2.04,4.67h-1.63l-.31-.81Zm-.43-1.13l-.45-1.17-.45,1.17h.91Z"/>
    <path class="cls-3" d="m19.6,2.55h2.3c1.56,0,2.63.89,2.63,2.33s-1.07,2.33-2.63,2.33h-2.3V2.55Zm2.23,3.44c.66,0,1.11-.39,1.11-1.11s-.45-1.11-1.11-1.11h-.66v2.21h.66Z"/>
    <path class="cls-3" d="m28.99,6.04v1.19h-3.88V2.55h3.79v1.19h-2.25v.55h1.97v1.13h-1.97v.61h2.33Z"/>
    <path class="cls-3" d="m32.78,6.41h-1.77l-.31.81h-1.6l2.04-4.67h1.55l2.04,4.67h-1.63l-.31-.81Zm-.43-1.13l-.45-1.17-.45,1.17h.91Z"/>
    <path class="cls-3" d="m34.98,2.55h1.57v3.45h2.11v1.22h-3.68V2.55Z"/>
    <path class="cls-3" d="m40.8,6.85l.51-1.15c.44.26,1.03.43,1.54.43.45,0,.61-.09.61-.25,0-.59-2.58-.11-2.58-1.85,0-.87.73-1.57,2.17-1.57.63,0,1.27.13,1.76.41l-.47,1.14c-.46-.23-.89-.35-1.3-.35-.46,0-.61.13-.61.29,0,.56,2.58.09,2.58,1.81,0,.85-.73,1.57-2.17,1.57-.78,0-1.57-.19-2.03-.48Z"/>
    <path class="cls-3" d="m45.29,4.89c0-1.41,1.11-2.44,2.63-2.44s2.63,1.03,2.63,2.44-1.11,2.44-2.63,2.44-2.63-1.03-2.63-2.44Zm3.68,0c0-.73-.47-1.17-1.05-1.17s-1.05.44-1.05,1.17.47,1.17,1.05,1.17,1.05-.44,1.05-1.17Z"/>
    <path class="cls-2" d="m57.73,2.55v4.67h-1.57v-1.72h-1.45v1.72h-1.57V2.55h1.57v1.65h1.45v-1.65h1.57Z"/>
    <path class="cls-2" d="m58.31,4.89c0-1.41,1.11-2.44,2.63-2.44s2.63,1.03,2.63,2.44-1.11,2.44-2.63,2.44-2.63-1.03-2.63-2.44Zm3.68,0c0-.73-.47-1.17-1.05-1.17s-1.05.44-1.05,1.17.47,1.17,1.05,1.17,1.05-.44,1.05-1.17Z"/>
    <path class="cls-2" d="m65.09,3.78h-1.37v-1.22h4.31v1.22h-1.37v3.45h-1.57v-3.45Z"/>
    <path class="cls-3" d="m6.83,14.74h1.57v4.67h-1.57v-4.67Z"/>
    <path class="cls-3" d="m10.18,15.96h-1.37v-1.22h4.31v1.22h-1.37v3.45h-1.57v-3.45Z"/>
    <path class="cls-3" d="m15.17,15.24c0,.21-.03.37-.26.87l-.47.99h-.93l.33-1.13c-.27-.13-.43-.39-.43-.74,0-.52.37-.85.88-.85s.88.33.88.85Z"/>
    <path class="cls-3" d="m15.46,19.03l.51-1.15c.44.26,1.03.43,1.54.43.45,0,.61-.09.61-.25,0-.59-2.58-.11-2.58-1.85,0-.87.73-1.57,2.17-1.57.63,0,1.27.13,1.76.41l-.47,1.14c-.46-.23-.89-.35-1.3-.35-.46,0-.61.13-.61.29,0,.56,2.58.09,2.58,1.81,0,.85-.73,1.57-2.17,1.57-.78,0-1.57-.19-2.03-.48Z"/>
    <path class="cls-2" d="m21.84,19.03l.51-1.15c.44.26,1.03.43,1.54.43.45,0,.61-.09.61-.25,0-.59-2.58-.11-2.58-1.85,0-.87.73-1.57,2.17-1.57.63,0,1.27.13,1.76.41l-.47,1.14c-.46-.23-.89-.35-1.3-.35-.46,0-.61.13-.61.29,0,.56,2.58.09,2.58,1.81,0,.85-.73,1.57-2.17,1.57-.78,0-1.57-.19-2.03-.48Z"/>
    <path class="cls-2" d="m26.48,17.3v-2.57h1.57v2.52c0,.71.27.98.71.98s.71-.27.71-.98v-2.52h1.55v2.57c0,1.4-.84,2.21-2.27,2.21s-2.27-.81-2.27-2.21Z"/>
    <path class="cls-2" d="m36.35,14.74v4.67h-1.29l-1.77-2.12v2.12h-1.53v-4.67h1.29l1.77,2.12v-2.12h1.53Z"/>
    <path class="cls-2" d="m36.82,19.03l.51-1.15c.44.26,1.03.43,1.54.43.45,0,.61-.09.61-.25,0-.59-2.58-.11-2.58-1.85,0-.87.73-1.57,2.17-1.57.63,0,1.27.13,1.76.41l-.47,1.14c-.46-.23-.89-.35-1.3-.35-.46,0-.61.13-.61.29,0,.56,2.58.09,2.58,1.81,0,.85-.73,1.57-2.17,1.57-.78,0-1.57-.19-2.03-.48Z"/>
    <path class="cls-2" d="m44.67,18.59h-1.77l-.31.81h-1.6l2.04-4.67h1.55l2.04,4.67h-1.63l-.31-.81Zm-.43-1.13l-.45-1.17-.45,1.17h.91Z"/>
    <path class="cls-2" d="m47.65,15.96h-1.37v-1.22h4.31v1.22h-1.37v3.45h-1.57v-3.45Z"/>
    <path class="cls-2" d="m50.99,14.74h1.57v4.67h-1.57v-4.67Z"/>
    <path class="cls-2" d="m53.14,17.07c0-1.41,1.11-2.44,2.63-2.44s2.63,1.03,2.63,2.44-1.11,2.44-2.63,2.44-2.63-1.03-2.63-2.44Zm3.68,0c0-.73-.47-1.17-1.05-1.17s-1.05.44-1.05,1.17.47,1.17,1.05,1.17,1.05-.44,1.05-1.17Z"/>
    <path class="cls-2" d="m63.59,14.74v4.67h-1.29l-1.77-2.12v2.12h-1.53v-4.67h1.29l1.77,2.12v-2.12h1.53Z"/>
    <path class="cls-2" d="m67.53,18.59h-1.77l-.31.81h-1.6l2.04-4.67h1.55l2.04,4.67h-1.63l-.31-.81Zm-.43-1.13l-.45-1.17-.45,1.17h.91Z"/>
    <path class="cls-2" d="m69.72,14.74h1.57v3.45h2.11v1.22h-3.68v-4.67Z"/>
  </g>
</svg>