<?xml version="1.0" encoding="UTF-8"?>
<svg id="Layer_3" data-name="Layer 3" xmlns="http://www.w3.org/2000/svg" viewBox="0 0 254.79 46">
  <defs>
    <style>
      .cls-1 {
        fill: #fff;
        stroke: #e64884;
        stroke-miterlimit: 10;
        stroke-width: 1.2px;
      }

      .cls-2 {
        fill: #e64884;
      }
    </style>
  </defs>
  <path class="cls-2" d="m16.46,29.89c1.35,0,1.98-.59,1.98-1.58,0-2.81-11.54-3.13-11.54-11.02,0-5.19,3.17-9.91,8.48-9.91s6.54,4.4,6.54,8.29c0,1.43-1.43,3.09-3.45,3.09-.59,0-1.15-.44-1.19-1.23-.08-3.29-1.11-5.59-2.66-5.59-1.43,0-2.46,1.82-2.46,4.72,0,4.44,10.94,4.52,10.94,11.22,0,4.12-3.69,6.54-7.89,6.54-5.19,0-8.44-2.06-8.44-3.61,0-1.9.87-3.61,1.78-3.61,1.35,0,4.8,2.7,7.89,2.7Z"/>
  <path class="cls-2" d="m34.09,29.97c-1.03,2.46-2.46,4.28-4.28,4.28-2.7,0-5.43-2.85-5.43-7.18,0-8.21,3.17-13.36,7.37-13.36,1.78,0,2.81,1.07,3.41,2.46.28-1.39.55-1.94,1.31-1.94,1.35,0,2.46.87,2.46,1.98,0,1.9-.71,9.08-.71,11.46,0,1.15.44,1.43,1.03,1.43,1.82,0,3.73-6.7,5.11-11.93.36-1.11,1.86.16,1.86,1.23-.2,5.63-2.93,15.94-7.37,15.94-2.02,0-4.24-1.86-4.76-4.36Zm-5.43-3.17c0,1.27.32,2.26,1.07,2.26,2.06,0,4-6.54,4-9.36,0-1.15-.48-1.74-1.27-1.74-1.67,0-3.81,3.92-3.81,8.84Z"/>
  <path class="cls-2" d="m41.82,17.8c0-2.06,1.74-3.65,3.09-3.65,1.51,0,1.55.63,2.38,8.56.4,5,.75,7.21,1.98,7.21,1.03,0,1.9-2.18,2.3-4.52-1.39-1.11-1.86-3.17-1.86-5.67,0-3.73,1.03-5.91,2.7-5.91,2.14,0,3.05,3.17,3.05,6.18,0,.99-.04,1.94-.12,2.85,1.86-.4,3.13-2.18,4.36-5.75.08-.28.24-.4.44-.4.55,0,1.43.83,1.39,1.63,0,4.2-2.34,7.77-6.74,8.01-1.11,4.72-3.45,7.93-6.34,7.93-4.56,0-6.62-10.03-6.62-16.49Z"/>
  <path class="cls-2" d="m69.05,27.04c.4-.36.63-.63,1.07-.63.52,0,.79.48.79,1.35,0,3.17-1.9,6.58-6.03,6.58-5.51,0-7.49-3.85-7.49-8.4,0-7.33,3.21-12.21,7.81-12.21,3.17,0,5.27,1.98,5.27,5,0,3.41-2.85,6.78-8.36,6.94.24,2.89,1.74,4.28,3.53,4.28,1.67,0,2.66-1.7,3.41-2.89Zm-6.94-3.61c3.49-1.43,4.48-3.33,4.48-4.68,0-.95-.44-1.47-1.27-1.47-1.62,0-2.97,2.14-3.21,6.14Z"/>
  <path class="cls-2" d="m89.07,26.92c-1.31,4.84-3.01,7.41-5.47,7.41-3.33,0-4.32-3.92-4.32-9.16,0-3.61.16-7.53.71-10.11.16-.75.52-1.11,1.35-1.11,1.03,0,2.74.44,3.05,1.74.44,1.82-.16,7.73-.12,11.18,0,1.03.28,1.63.87,1.63,1.59,0,3.61-6.66,4.2-12.01.24-1.71.67-2.34,1.63-2.34,1.27,0,2.93.79,2.93,1.82,0,1.55-.2,5.43-.2,9.95,0,2.26.55,3.17,1.43,3.17,1.82,0,3.65-6.7,5.03-11.93.36-1.11,1.9.16,1.86,1.23-.2,5.63-3.37,15.94-8.48,15.94-3.21,0-4.36-2.85-4.48-7.41Z"/>
  <path class="cls-2" d="m101.91,40.36c-1.71,0-2.74-.59-3.05-1.98-.08-.59-.12-3.33-.12-6.58,0-4.84.24-11.46.63-15.82.16-1.51.63-1.78,1.35-1.78.87,0,2.38.63,2.38,1.9v3.53c1.23-3.21,3.13-5.91,5.79-5.91,3.37,0,4.64,2.89,4.64,6.62,0,8.48-3.25,13.92-6.42,13.92-1.55,0-2.82-.28-3.77-.83.2,1.98.28,3.41.28,5.07,0,1.47-.75,1.86-1.7,1.86Zm6.74-19.66c0-1.31-.48-2.22-1.19-2.22-2.26,0-3.85,6.9-3.73,9.83.04,1.11.55,1.67,1.35,1.67,1.74,0,3.57-4.48,3.57-9.28Z"/>
  <path class="cls-2" d="m122.36,13.68h-.63c-1.47,0-3.29-1.07-3.29-2.06,0-.71,2.1-1.19,4.68-1.51.59-2.02,1.35-3.05,2.18-3.05,1.19,0,2.06,1.43,2.3,2.7,1.43-.04,2.7-.08,3.49-.08,2.34,0,3.53,1.43,3.53,2.26,0,.36-.28.67-.63.79-.44.12-3.57.44-6.62.63-.4,2.77-.99,6.98-.99,12.41,0,2.42.55,3.33,1.43,3.33,2.02,0,3.89-6.7,5.27-11.93.32-1.11,1.86.16,1.86,1.23-.2,5.63-3.41,15.94-8.72,15.94-3.53,0-4.52-3.33-4.52-8.92,0-4.84.24-8.8.67-11.73Z"/>
  <path class="cls-2" d="m130.6,25.18c0-6.42,2.22-11.46,6.98-11.46,3.92,0,6.3,2.93,6.3,9.83,0,5-1.58,10.74-6.9,10.74-4.48,0-6.38-4-6.38-9.12Zm9.55-2.26c0-3.96-.87-5.31-2.26-5.31-1.78,0-2.66,2.85-2.66,6.66s.87,5.71,2.5,5.71c2.02,0,2.42-3.53,2.42-7.06Z"/>
  <path class="cls-1" d="m160.09,37.03c0-1.62.24-3.01.51-4.12-4.16-.28-6.7-1.59-6.7-2.54,0-1.94.87-3.65,1.78-3.65,1.23,0,4.28,2.14,7.06,2.14,1.43,0,2.02-.55,2.02-1.47,0-2.38-10.66-2.46-10.66-8.36,0-4.04,2.66-7.81,6.74-8.4-.28-1.74-.67-4.08-.67-5.75,0-.87.32-1.47.99-1.47,1.15,0,2.74,1.11,2.74,2.02,0,2.3-.4,4.04-.71,5.15,4.84.44,5.95,3.81,5.95,6.78,0,1.43-1.43,3.09-3.45,3.09-.59,0-1.15-.44-1.19-1.23-.08-3.09-1.03-5.19-2.54-5.19s-2.58,1.74-2.58,4.32c0,3.73,10.58,3.81,10.58,9.47,0,3.01-3.01,4.88-6.66,5.11.24,1.55.51,3.33.51,4.64,0,.87-.32,1.47-.99,1.47-1.11,0-2.74-1.11-2.74-2.02Z"/>
  <path class="cls-1" d="m172.57,30.92c-.04-.79.36-1.35,1.23-1.47.55-.04,1.86-.12,3.37-.12-.04-2.46-.04-5.83-.04-9.2,0-1.86.04-4.12.08-6.06-1.07.24-2.18.44-2.74.4-.79-.04-1.55-2.02-1.55-2.97,0-1.15,3.53-1.94,5.59-1.98,1.35-.12,3.09.2,3.33,1.03.28.95.44,3.17.48,5.43,0,4.28-.28,10.78-.4,12.61,0,.24,0,.44-.04.63h2.54c1.23,0,1.86,1.9,1.86,2.97,0,.79-.4,1.11-1.11,1.27-2.06.4-9.63.63-10.66.63-1.31,0-1.94-1.82-1.94-3.17Z"/>
  <path class="cls-1" d="m188.15,23.79c0-9.16,3.37-14.67,9.16-14.67,4.72,0,8.33,2.74,8.33,11.1s-2.14,14.11-8.48,14.11-9-4.4-9-10.54Zm12.09-3.85c0-4.99-1.58-6.06-3.21-6.06-1.9,0-3.61,3.13-3.61,9,0,4.52,1.43,6.54,3.17,6.54,2.34,0,3.65-4.12,3.65-9.47Z"/>
  <path class="cls-1" d="m209.35,23.79c0-9.16,3.37-14.67,9.16-14.67,4.72,0,8.33,2.74,8.33,11.1s-2.14,14.11-8.48,14.11-9-4.4-9-10.54Zm12.09-3.85c0-4.99-1.58-6.06-3.21-6.06-1.9,0-3.61,3.13-3.61,9,0,4.52,1.43,6.54,3.17,6.54,2.34,0,3.65-4.12,3.65-9.47Z"/>
  <path class="cls-1" d="m230.56,23.79c0-9.16,3.37-14.67,9.16-14.67,4.72,0,8.33,2.74,8.33,11.1s-2.14,14.11-8.48,14.11-9-4.4-9-10.54Zm12.09-3.85c0-4.99-1.58-6.06-3.21-6.06-1.9,0-3.61,3.13-3.61,9,0,4.52,1.43,6.54,3.17,6.54,2.34,0,3.65-4.12,3.65-9.47Z"/>
</svg>