<?xml version="1.0" encoding="UTF-8"?>
<svg id="Layer_6" data-name="Layer 6" xmlns="http://www.w3.org/2000/svg" viewBox="0 0 96.61 47.91">
  <defs>
    <style>
      .cls-1 {
        fill: #fff;
      }

      .cls-2 {
        fill: #e84886;
      }
    </style>
  </defs>
  <path class="cls-2" d="m6.82,16.09c.95,0,1.4-.42,1.4-1.12C8.21,12.99.08,12.77.08,7.21.08,3.55,2.32.22,6.06.22s4.61,3.1,4.61,5.84c0,1.01-1.01,2.18-2.43,2.18-.42,0-.81-.31-.84-.87-.06-2.32-.78-3.94-1.87-3.94-1.01,0-1.73,1.29-1.73,3.32,0,3.13,7.71,3.18,7.71,7.91,0,2.91-2.6,4.61-5.56,4.61-3.66,0-5.95-1.45-5.95-2.54,0-1.34.61-2.54,1.26-2.54.95,0,3.38,1.9,5.56,1.9Z"/>
  <path class="cls-2" d="m19.24,16.15c-.73,1.73-1.73,3.02-3.02,3.02-1.9,0-3.83-2.01-3.83-5.06,0-5.78,2.23-9.41,5.2-9.41,1.26,0,1.98.75,2.4,1.73.2-.98.39-1.37.92-1.37.95,0,1.73.61,1.73,1.4,0,1.34-.5,6.4-.5,8.07,0,.81.31,1.01.73,1.01,1.28,0,2.63-4.72,3.6-8.41.25-.78,1.31.11,1.31.87-.14,3.97-2.07,11.23-5.2,11.23-1.42,0-2.99-1.31-3.35-3.07Zm-3.83-2.24c0,.89.22,1.59.75,1.59,1.45,0,2.82-4.61,2.82-6.59,0-.81-.34-1.23-.89-1.23-1.17,0-2.68,2.77-2.68,6.23Z"/>
  <path class="cls-2" d="m24.69,7.57c0-1.45,1.23-2.57,2.18-2.57,1.06,0,1.09.45,1.68,6.03.28,3.52.53,5.08,1.4,5.08.73,0,1.34-1.54,1.62-3.18-.98-.78-1.31-2.23-1.31-3.99,0-2.63.73-4.16,1.9-4.16,1.51,0,2.15,2.23,2.15,4.36,0,.7-.03,1.37-.08,2.01,1.31-.28,2.21-1.54,3.07-4.05.06-.2.17-.28.31-.28.39,0,1.01.59.98,1.15,0,2.96-1.65,5.47-4.75,5.64-.78,3.32-2.43,5.59-4.47,5.59-3.21,0-4.66-7.07-4.66-11.62Z"/>
  <path class="cls-2" d="m43.88,14.08c.28-.25.45-.45.75-.45.36,0,.56.34.56.95,0,2.24-1.34,4.64-4.25,4.64-3.88,0-5.28-2.71-5.28-5.92,0-5.17,2.26-8.6,5.5-8.6,2.23,0,3.72,1.4,3.72,3.52,0,2.4-2.01,4.78-5.89,4.89.17,2.04,1.23,3.02,2.49,3.02,1.17,0,1.87-1.2,2.4-2.04Zm-4.89-2.54c2.46-1.01,3.16-2.35,3.16-3.3,0-.67-.31-1.03-.89-1.03-1.15,0-2.1,1.51-2.26,4.33Z"/>
  <path class="cls-2" d="m57.98,14c-.92,3.41-2.12,5.22-3.86,5.22-2.35,0-3.05-2.77-3.05-6.45,0-2.54.11-5.31.5-7.12.11-.53.36-.78.95-.78.73,0,1.93.31,2.15,1.23.31,1.28-.11,5.45-.08,7.88,0,.73.2,1.15.61,1.15,1.12,0,2.54-4.69,2.96-8.46.17-1.2.47-1.65,1.15-1.65.89,0,2.07.56,2.07,1.28,0,1.09-.14,3.83-.14,7.01,0,1.59.39,2.24,1.01,2.24,1.29,0,2.57-4.72,3.55-8.41.25-.78,1.34.11,1.31.87-.14,3.97-2.37,11.23-5.98,11.23-2.26,0-3.07-2.01-3.16-5.22Z"/>
  <path class="cls-2" d="m67.03,23.47c-1.2,0-1.93-.42-2.15-1.4-.06-.42-.08-2.35-.08-4.64,0-3.41.17-8.07.45-11.15.11-1.06.45-1.26.95-1.26.61,0,1.68.45,1.68,1.34v2.49c.87-2.26,2.21-4.16,4.08-4.16,2.37,0,3.27,2.04,3.27,4.66,0,5.98-2.29,9.81-4.53,9.81-1.09,0-1.98-.2-2.65-.59.14,1.4.2,2.4.2,3.58,0,1.03-.53,1.31-1.2,1.31Zm4.75-13.86c0-.92-.34-1.56-.84-1.56-1.59,0-2.71,4.86-2.63,6.93.03.78.39,1.17.95,1.17,1.23,0,2.51-3.16,2.51-6.54Z"/>
  <path class="cls-2" d="m81.44,4.67h-.45c-1.03,0-2.32-.75-2.32-1.45,0-.5,1.48-.84,3.3-1.06.42-1.42.95-2.15,1.54-2.15.84,0,1.45,1.01,1.62,1.9,1.01-.03,1.9-.06,2.46-.06,1.65,0,2.49,1.01,2.49,1.59,0,.25-.2.48-.45.56-.31.08-2.51.31-4.67.45-.28,1.96-.7,4.92-.7,8.74,0,1.7.39,2.35,1.01,2.35,1.42,0,2.74-4.72,3.72-8.41.22-.78,1.31.11,1.31.87-.14,3.97-2.4,11.23-6.15,11.23-2.49,0-3.18-2.35-3.18-6.29,0-3.41.17-6.2.48-8.27Z"/>
  <path class="cls-2" d="m87.25,12.77c0-4.53,1.56-8.07,4.92-8.07,2.77,0,4.44,2.07,4.44,6.93,0,3.52-1.12,7.57-4.86,7.57-3.16,0-4.5-2.82-4.5-6.42Zm6.73-1.59c0-2.79-.61-3.74-1.59-3.74-1.26,0-1.87,2.01-1.87,4.69s.61,4.02,1.76,4.02c1.42,0,1.7-2.49,1.7-4.97Z"/>
  <g>
    <path class="cls-1" d="m18.99,45.54c0-1.15.17-2.12.36-2.9-2.93-.2-4.72-1.12-4.72-1.79,0-1.37.61-2.57,1.26-2.57.87,0,3.02,1.51,4.97,1.51,1.01,0,1.42-.39,1.42-1.03,0-1.68-7.51-1.73-7.51-5.89,0-2.85,1.87-5.5,4.75-5.92-.2-1.23-.47-2.88-.47-4.05,0-.61.22-1.03.7-1.03.81,0,1.93.78,1.93,1.42,0,1.62-.28,2.85-.5,3.63,3.41.31,4.19,2.68,4.19,4.78,0,1.01-1.01,2.18-2.43,2.18-.42,0-.81-.31-.84-.87-.06-2.18-.73-3.66-1.79-3.66s-1.82,1.23-1.82,3.05c0,2.63,7.46,2.68,7.46,6.68,0,2.12-2.12,3.44-4.69,3.6.17,1.09.36,2.35.36,3.27,0,.61-.22,1.03-.7,1.03-.78,0-1.93-.78-1.93-1.43Z"/>
    <path class="cls-2" d="m20.92,47.39c-.98,0-2.35-.93-2.35-1.85,0-.85.09-1.68.26-2.52-2.71-.26-4.62-1.15-4.62-2.17,0-1.45.68-2.99,1.68-2.99.43,0,1.01.25,1.73.56.96.42,2.16.94,3.24.94,1,0,1-.41,1-.61,0-.35-1.29-.82-2.24-1.16-2.23-.8-5.28-1.89-5.28-4.74,0-3.09,1.95-5.65,4.69-6.26-.19-1.19-.41-2.63-.41-3.71s.58-1.46,1.12-1.46c1,0,2.35.91,2.35,1.85,0,1.13-.13,2.21-.39,3.27,2.64.42,4.08,2.23,4.08,5.14,0,1.23-1.17,2.6-2.85,2.6-.59,0-1.22-.43-1.26-1.27-.05-1.92-.61-3.26-1.37-3.26-.79,0-1.39,1.13-1.39,2.62,0,.9,1.41,1.52,2.89,2.18,2.14.94,4.56,2.02,4.56,4.5,0,2.1-1.84,3.66-4.63,3.98.15,1.02.3,2.07.3,2.89,0,1.07-.58,1.46-1.12,1.46Zm-5.03-8.69c-.25,0-.83.83-.83,2.15.05.3,1.45,1.17,4.33,1.37l.5.03-.12.49c-.24.94-.35,1.86-.35,2.8,0,.31.86,1,1.5,1,.24,0,.28-.38.28-.61,0-.88-.19-2.09-.35-3.16l-.07-.46.45-.08c2.14-.14,4.3-1.18,4.3-3.18s-2.06-2.84-4.06-3.72c-1.75-.77-3.4-1.5-3.4-2.95,0-2.04.92-3.47,2.24-3.47s2.15,1.56,2.21,4.07c.02.33.23.45.42.45,1.24,0,2.01-1.02,2.01-1.76,0-2.66-1.28-4.13-3.81-4.36l-.51-.05.14-.49c.33-1.15.49-2.29.49-3.52,0-.32-.84-1-1.5-1-.24,0-.28.38-.28.61,0,1.05.23,2.52.42,3.69l.11.71-.42.06c-2.54.37-4.39,2.69-4.39,5.5,0,2.25,2.61,3.19,4.72,3.94,1.56.56,2.8,1,2.8,1.95,0,.44-.18,1.46-1.85,1.46-1.26,0-2.55-.56-3.58-1.01-.56-.24-1.13-.49-1.39-.49Z"/>
  </g>
  <g>
    <path class="cls-1" d="m27.79,41.24c-.03-.56.25-.95.87-1.03.39-.03,1.31-.08,2.37-.08-.03-1.73-.03-4.11-.03-6.48,0-1.31.03-2.9.06-4.27-.75.17-1.54.31-1.93.28-.56-.03-1.09-1.42-1.09-2.09,0-.81,2.49-1.37,3.94-1.4.95-.08,2.18.14,2.35.73.2.67.31,2.23.34,3.83,0,3.02-.2,7.6-.28,8.88,0,.17,0,.31-.03.45h1.79c.87,0,1.31,1.34,1.31,2.1,0,.56-.28.78-.78.89-1.45.28-6.79.45-7.51.45-.92,0-1.37-1.28-1.37-2.23Z"/>
    <path class="cls-2" d="m29.16,43.89c-1.23,0-1.79-1.54-1.79-2.65-.04-.79.44-1.35,1.23-1.46.33-.02,1.09-.07,2-.08-.02-1.69-.02-3.91-.02-6.06,0-1.15.02-2.51.05-3.75-.71.14-1.21.2-1.52.18-.92-.05-1.48-1.77-1.48-2.52,0-1.32,3.19-1.8,4.35-1.82.95-.09,2.5.12,2.76,1.03.28.96.34,3.25.35,3.94,0,3.05-.2,7.63-.28,8.92h1.34c1.23,0,1.74,1.64,1.74,2.52,0,1.06-.84,1.25-1.11,1.31-1.49.29-6.81.46-7.61.46Zm1.87-3.35c-1.08,0-2,.06-2.34.08-.34.05-.49.23-.47.59v.02c0,.74.34,1.81.95,1.81.69,0,6.02-.17,7.43-.44.38-.08.44-.19.44-.48,0-.66-.4-1.67-.89-1.67h-2.3l.1-.51c.02-.11.02-.23.02-.36.08-1.3.28-5.85.28-8.88-.03-1.71-.15-3.14-.32-3.71-.07-.23-.91-.51-1.9-.42-1.7.03-3.47.64-3.55.98,0,.58.46,1.59.7,1.67.16.01.62,0,1.8-.27l.53-.12v.54c-.04,1.37-.07,2.95-.07,4.26,0,2.33,0,4.75.03,6.47v.43s-.42,0-.42,0Z"/>
  </g>
  <g>
    <path class="cls-1" d="m38.77,36.21c0-6.45,2.37-10.34,6.45-10.34,3.32,0,5.87,1.93,5.87,7.82s-1.51,9.94-5.98,9.94-6.34-3.1-6.34-7.43Zm8.52-2.71c0-3.52-1.12-4.27-2.26-4.27-1.34,0-2.54,2.21-2.54,6.34,0,3.18,1.01,4.61,2.23,4.61,1.65,0,2.57-2.9,2.57-6.68Z"/>
    <path class="cls-2" d="m45.11,44.06c-4.3,0-6.76-2.86-6.76-7.85,0-6.74,2.57-10.76,6.88-10.76,2.87,0,6.29,1.43,6.29,8.24s-2.15,10.37-6.4,10.37Zm.11-17.77c-3.78,0-6.03,3.71-6.03,9.91,0,3.2,1.03,7.01,5.92,7.01,3.74,0,5.56-3.11,5.56-9.52,0-4.98-1.78-7.4-5.44-7.4Zm-.5,14.3c-.62,0-2.66-.36-2.66-5.03,0-4.05,1.19-6.76,2.96-6.76s2.69,1.54,2.69,4.7c0,4.38-1.15,7.1-2.99,7.1Zm.31-10.95c-1.03,0-2.12,2.07-2.12,5.92,0,2.58.69,4.19,1.81,4.19,1.26,0,2.15-2.57,2.15-6.25s-1.38-3.85-1.84-3.85Z"/>
  </g>
  <g>
    <path class="cls-1" d="m53.71,36.21c0-6.45,2.37-10.34,6.45-10.34,3.32,0,5.87,1.93,5.87,7.82s-1.51,9.94-5.98,9.94-6.34-3.1-6.34-7.43Zm8.52-2.71c0-3.52-1.12-4.27-2.26-4.27-1.34,0-2.54,2.21-2.54,6.34,0,3.18,1.01,4.61,2.23,4.61,1.65,0,2.57-2.9,2.57-6.68Z"/>
    <path class="cls-2" d="m60.05,44.06c-4.3,0-6.76-2.86-6.76-7.85,0-6.74,2.57-10.76,6.88-10.76,2.87,0,6.29,1.43,6.29,8.24s-2.15,10.37-6.4,10.37Zm.11-17.77c-3.78,0-6.03,3.71-6.03,9.91,0,3.2,1.03,7.01,5.92,7.01,3.74,0,5.56-3.11,5.56-9.52,0-4.98-1.78-7.4-5.44-7.4Zm-.5,14.3c-.62,0-2.66-.36-2.66-5.03,0-4.05,1.19-6.76,2.96-6.76s2.69,1.54,2.69,4.7c0,4.38-1.15,7.1-2.99,7.1Zm.31-10.95c-1.03,0-2.12,2.07-2.12,5.92,0,2.58.69,4.19,1.81,4.19,1.26,0,2.15-2.57,2.15-6.25s-1.38-3.85-1.84-3.85Z"/>
  </g>
  <g>
    <path class="cls-1" d="m68.65,36.21c0-6.45,2.37-10.34,6.45-10.34,3.32,0,5.87,1.93,5.87,7.82s-1.51,9.94-5.98,9.94-6.34-3.1-6.34-7.43Zm8.52-2.71c0-3.52-1.12-4.27-2.26-4.27-1.34,0-2.54,2.21-2.54,6.34,0,3.18,1.01,4.61,2.23,4.61,1.65,0,2.57-2.9,2.57-6.68Z"/>
    <path class="cls-2" d="m74.99,44.06c-4.3,0-6.76-2.86-6.76-7.85,0-6.74,2.57-10.76,6.88-10.76,2.87,0,6.29,1.43,6.29,8.24s-2.15,10.37-6.4,10.37Zm.11-17.77c-3.78,0-6.03,3.71-6.03,9.91,0,3.2,1.03,7.01,5.92,7.01,3.74,0,5.56-3.11,5.56-9.52,0-4.98-1.78-7.4-5.44-7.4Zm-.5,14.3c-.62,0-2.66-.36-2.66-5.03,0-4.05,1.19-6.76,2.96-6.76s2.69,1.54,2.69,4.7c0,4.38-1.15,7.1-2.99,7.1Zm.31-10.95c-1.03,0-2.12,2.07-2.12,5.92,0,2.58.69,4.19,1.81,4.19,1.26,0,2.15-2.57,2.15-6.25s-1.38-3.85-1.84-3.85Z"/>
  </g>
</svg>