<?xml version="1.0" encoding="UTF-8"?>
<svg id="Layer_6" data-name="Layer 6" xmlns="http://www.w3.org/2000/svg" xmlns:xlink="http://www.w3.org/1999/xlink" viewBox="0 0 199.23 19.93">
  <defs>
    <style>
      .cls-1 {
        fill: url(#linear-gradient);
      }

      .cls-2 {
        fill: #e64884;
      }

      .cls-3 {
        fill: #f1f0f1;
      }
    </style>
    <linearGradient id="linear-gradient" x1="-2069.83" y1="890.69" x2="-1874.56" y2="890.69" gradientTransform="translate(2072.32 -880.73)" gradientUnits="userSpaceOnUse">
      <stop offset="0" stop-color="#f7cbe4"/>
      <stop offset=".14" stop-color="#e3c7e5"/>
      <stop offset=".44" stop-color="#afbde9"/>
      <stop offset=".85" stop-color="#5eadf0"/>
      <stop offset="1" stop-color="#3fa7f3"/>
    </linearGradient>
  </defs>
  <rect class="cls-1" x="2.49" y="2.57" width="195.27" height="14.8" rx="7.4" ry="7.4" transform="translate(200.24 19.93) rotate(-180)"/>
  <g>
    <path class="cls-3" d="m13.84,11.93h-2.59l-.46,1.19h-2.34l2.98-6.83h2.26l2.98,6.83h-2.38l-.46-1.19Zm-.63-1.66l-.66-1.72-.66,1.72h1.33Z"/>
    <path class="cls-3" d="m19.97,6.3h3.36c2.28,0,3.85,1.3,3.85,3.41s-1.57,3.41-3.85,3.41h-3.36v-6.83Zm3.27,5.03c.97,0,1.63-.58,1.63-1.62s-.66-1.62-1.63-1.62h-.96v3.24h.96Z"/>
    <path class="cls-3" d="m33.69,11.39v1.74h-5.67v-6.83h5.55v1.74h-3.29v.8h2.89v1.66h-2.89v.9h3.41Z"/>
    <path class="cls-3" d="m39.23,11.93h-2.59l-.46,1.19h-2.34l2.98-6.83h2.26l2.98,6.83h-2.38l-.46-1.19Zm-.63-1.66l-.66-1.72-.66,1.72h1.33Z"/>
    <path class="cls-3" d="m42.43,6.3h2.3v5.04h3.08v1.78h-5.38v-6.83Z"/>
    <path class="cls-3" d="m50.94,12.58l.74-1.68c.64.38,1.5.62,2.25.62.65,0,.89-.14.89-.37,0-.86-3.77-.17-3.77-2.71,0-1.27,1.06-2.3,3.18-2.3.92,0,1.86.2,2.57.59l-.69,1.67c-.67-.34-1.31-.51-1.9-.51-.67,0-.89.2-.89.43,0,.82,3.77.14,3.77,2.65,0,1.25-1.06,2.3-3.18,2.3-1.14,0-2.29-.28-2.97-.7Z"/>
    <path class="cls-3" d="m57.5,9.71c0-2.07,1.63-3.57,3.85-3.57s3.85,1.5,3.85,3.57-1.63,3.57-3.85,3.57-3.85-1.5-3.85-3.57Zm5.38,0c0-1.06-.68-1.71-1.53-1.71s-1.53.64-1.53,1.71.68,1.71,1.53,1.71,1.53-.64,1.53-1.71Z"/>
    <path class="cls-2" d="m75.69,6.3v6.83h-2.3v-2.52h-2.13v2.52h-2.3v-6.83h2.3v2.42h2.13v-2.42h2.3Z"/>
    <path class="cls-2" d="m76.52,9.71c0-2.07,1.63-3.57,3.85-3.57s3.85,1.5,3.85,3.57-1.63,3.57-3.85,3.57-3.85-1.5-3.85-3.57Zm5.38,0c0-1.06-.68-1.71-1.53-1.71s-1.53.64-1.53,1.71.68,1.71,1.53,1.71,1.53-.64,1.53-1.71Z"/>
    <path class="cls-2" d="m86.44,8.08h-2v-1.78h6.3v1.78h-2v5.04h-2.3v-5.04Z"/>
    <path class="cls-3" d="m94.26,6.3h2.3v6.83h-2.3v-6.83Z"/>
    <path class="cls-3" d="m99.15,8.08h-2v-1.78h6.3v1.78h-2v5.04h-2.3v-5.04Z"/>
    <path class="cls-3" d="m106.45,7.04c0,.31-.04.55-.38,1.28l-.68,1.45h-1.37l.49-1.65c-.39-.19-.63-.57-.63-1.08,0-.76.55-1.25,1.29-1.25s1.29.49,1.29,1.25Z"/>
    <path class="cls-3" d="m106.86,12.58l.74-1.68c.64.38,1.5.62,2.25.62.65,0,.89-.14.89-.37,0-.86-3.77-.17-3.77-2.71,0-1.27,1.06-2.3,3.18-2.3.92,0,1.86.2,2.57.59l-.69,1.67c-.67-.34-1.31-.51-1.9-.51-.67,0-.89.2-.89.43,0,.82,3.77.14,3.77,2.65,0,1.25-1.06,2.3-3.18,2.3-1.14,0-2.29-.28-2.97-.7Z"/>
    <path class="cls-2" d="m116.19,12.58l.74-1.68c.64.38,1.5.62,2.25.62.65,0,.89-.14.89-.37,0-.86-3.77-.17-3.77-2.71,0-1.27,1.06-2.3,3.18-2.3.92,0,1.86.2,2.57.59l-.69,1.67c-.67-.34-1.31-.51-1.9-.51-.67,0-.89.2-.89.43,0,.82,3.77.14,3.77,2.65,0,1.25-1.06,2.3-3.18,2.3-1.14,0-2.29-.28-2.97-.7Z"/>
    <path class="cls-2" d="m122.96,10.05v-3.75h2.3v3.69c0,1.04.4,1.43,1.04,1.43s1.04-.39,1.04-1.43v-3.69h2.26v3.75c0,2.05-1.23,3.23-3.33,3.23s-3.33-1.18-3.33-3.23Z"/>
    <path class="cls-2" d="m137.39,6.3v6.83h-1.89l-2.59-3.1v3.1h-2.24v-6.83h1.89l2.59,3.1v-3.1h2.24Z"/>
    <path class="cls-2" d="m138.07,12.58l.74-1.68c.64.38,1.5.62,2.25.62.65,0,.89-.14.89-.37,0-.86-3.77-.17-3.77-2.71,0-1.27,1.06-2.3,3.18-2.3.92,0,1.86.2,2.57.59l-.69,1.67c-.67-.34-1.31-.51-1.9-.51-.67,0-.89.2-.89.43,0,.82,3.77.14,3.77,2.65,0,1.25-1.06,2.3-3.18,2.3-1.14,0-2.29-.28-2.97-.7Z"/>
    <path class="cls-2" d="m149.55,11.93h-2.59l-.46,1.19h-2.34l2.98-6.83h2.26l2.98,6.83h-2.38l-.46-1.19Zm-.63-1.66l-.66-1.72-.66,1.72h1.33Z"/>
    <path class="cls-2" d="m153.89,8.08h-2v-1.78h6.3v1.78h-2v5.04h-2.3v-5.04Z"/>
    <path class="cls-2" d="m158.78,6.3h2.3v6.83h-2.3v-6.83Z"/>
    <path class="cls-2" d="m161.92,9.71c0-2.07,1.63-3.57,3.85-3.57s3.85,1.5,3.85,3.57-1.63,3.57-3.85,3.57-3.85-1.5-3.85-3.57Zm5.38,0c0-1.06-.68-1.71-1.53-1.71s-1.53.64-1.53,1.71.68,1.71,1.53,1.71,1.53-.64,1.53-1.71Z"/>
    <path class="cls-2" d="m177.19,6.3v6.83h-1.89l-2.59-3.1v3.1h-2.24v-6.83h1.89l2.59,3.1v-3.1h2.24Z"/>
    <path class="cls-2" d="m182.95,11.93h-2.59l-.46,1.19h-2.34l2.98-6.83h2.26l2.98,6.83h-2.38l-.46-1.19Zm-.63-1.66l-.66-1.72-.66,1.72h1.33Z"/>
    <path class="cls-2" d="m186.15,6.3h2.3v5.04h3.08v1.78h-5.38v-6.83Z"/>
  </g>
</svg>