<?xml version="1.0" encoding="UTF-8"?>
<svg id="Layer_6" data-name="Layer 6" xmlns="http://www.w3.org/2000/svg" viewBox="0 0 19 19">
  <defs>
    <style>
      .cls-1 {
        fill: #e54a91;
      }
    </style>
  </defs>
  <path class="cls-1" d="m12.54,17.11h-4.87c-1.35,0-2.1,0-2.75-.33-.58-.29-1.04-.75-1.33-1.33-.33-.65-.33-1.4-.33-2.75v-1.06c0-1.35,0-2.1.33-2.75.29-.58.75-1.04,1.33-1.33.19-.1.39-.17.62-.22v-.88c0-2.52,2.05-4.56,4.56-4.56s4.56,2.05,4.56,4.56v.88c.23.05.43.12.62.22.58.29,1.04.75,1.33,1.33.33.65.33,1.4.33,2.75v1.06c0,1.35,0,2.1-.33,2.75-.29.58-.75,1.04-1.33,1.33-.65.33-1.4.33-2.75.33Zm-6.2-8.35c-.36.02-.57.07-.73.14-.29.15-.52.38-.66.66-.17.33-.17.94-.17,2.06v1.06c0,1.12,0,1.73.17,2.06.15.29.38.52.66.66.33.17.94.17,2.06.17h4.87c1.12,0,1.73,0,2.06-.17.29-.15.52-.38.66-.66.17-.33.17-.94.17-2.06v-1.06c0-1.12,0-1.73-.17-2.06-.15-.29-.38-.52-.66-.66-.16-.08-.37-.12-.73-.14,0,0,0,0-.01,0-.33-.02-.77-.02-1.32-.02h-4.87c-.55,0-.98,0-1.32.02,0,0,0,0-.01,0Zm1.33-1.54h4.87c.22,0,.42,0,.61,0v-.76c0-1.68-1.36-3.04-3.04-3.04s-3.04,1.36-3.04,3.04v.76c.19,0,.39,0,.61,0Z"/>
</svg>