<?xml version="1.0" encoding="UTF-8"?>
<svg id="Layer_6" data-name="Layer 6" xmlns="http://www.w3.org/2000/svg" xmlns:xlink="http://www.w3.org/1999/xlink" viewBox="0 0 19 19">
  <defs>
    <style>
      .cls-1, .cls-2, .cls-3, .cls-4 {
        fill: none;
      }

      .cls-2 {
        opacity: .59;
      }

      .cls-3 {
        clip-path: url(#clippath-1);
      }

      .cls-5 {
        fill: #e54a91;
      }

      .cls-6 {
        fill: #ffa9bc;
      }

      .cls-4 {
        clip-path: url(#clippath);
      }
    </style>
    <clipPath id="clippath">
      <rect class="cls-1" x="-80.06" y="-39.78" width="52.99" height="51.17"/>
    </clipPath>
    <clipPath id="clippath-1">
      <path class="cls-1" d="m-36-71.97c-21.33,0-38.62,17.29-38.62,38.62S-57.33,5.27-36,5.27,2.62-12.02,2.62-33.35s-17.29-38.62-38.62-38.62Zm0,57.17c-10.24,0-18.55-8.3-18.55-18.55s8.3-18.55,18.55-18.55,18.55,8.3,18.55,18.55-8.3,18.55-18.55,18.55Z"/>
    </clipPath>
  </defs>
  <g>
    <path class="cls-5" d="m17,3.8c.1-.1.17-.21.23-.34.05-.13.08-.26.08-.4s-.03-.27-.08-.4c-.05-.13-.13-.24-.23-.34l-1.65-1.65c-.2-.2-.54-.2-.74,0-.2.2-.2.54,0,.74l1.12,1.12H4.23c-.42,0-.81.16-1.11.46-.3.3-.46.69-.46,1.11v11.51l-1.2-1.2c-.2-.2-.54-.2-.74,0-.2.2-.2.54,0,.74l1.72,1.72c.1.1.21.17.34.23.12.05.24.08.37.08,0,0,.02,0,.03,0s.02,0,.03,0c.13,0,.25-.03.37-.08.13-.05.24-.13.34-.23l1.72-1.72c.2-.2.2-.54,0-.74-.2-.2-.54-.2-.74,0l-1.2,1.2V4.11c0-.14.05-.27.15-.37.1-.1.23-.15.37-.15h11.51l-1.2,1.2c-.2.2-.2.54,0,.74.1.1.24.15.37.15s.27-.05.37-.15l1.72-1.72Z"/>
    <path class="cls-5" d="m16.78,15.1c-.29,0-.52.23-.52.52,0,.14-.05.27-.15.37s-.23.15-.37.15c-.29,0-.52.23-.52.52s.23.52.52.52c.42,0,.81-.16,1.11-.46s.46-.69.46-1.11c0-.29-.23-.52-.52-.52Z"/>
    <path class="cls-5" d="m13.64,16.15h-1.05c-.29,0-.52.23-.52.52s.23.52.52.52h1.05c.29,0,.52-.23.52-.52s-.23-.52-.52-.52Z"/>
    <path class="cls-5" d="m10.5,16.15h-1.05c-.29,0-.52.23-.52.52s.23.52.52.52h1.05c.29,0,.52-.23.52-.52s-.23-.52-.52-.52Z"/>
    <path class="cls-5" d="m7.37,16.15h-1.05c-.29,0-.52.23-.52.52s.23.52.52.52h1.05c.29,0,.52-.23.52-.52s-.23-.52-.52-.52Z"/>
    <path class="cls-5" d="m16.78,11.96c-.29,0-.52.23-.52.52v1.05c0,.29.23.52.52.52s.52-.23.52-.52v-1.05c0-.29-.23-.52-.52-.52Z"/>
    <path class="cls-5" d="m16.78,8.82c-.29,0-.52.23-.52.52v1.05c0,.29.23.52.52.52s.52-.23.52-.52v-1.05c0-.29-.23-.52-.52-.52Z"/>
    <path class="cls-5" d="m16.78,5.68c-.29,0-.52.23-.52.52v1.05c0,.29.23.52.52.52s.52-.23.52-.52v-1.05c0-.29-.23-.52-.52-.52Z"/>
  </g>
  <g class="cls-2">
    <g class="cls-4">
      <g class="cls-3">
        <g>
          <path class="cls-6" d="m-143.9-7.79C-129.3-2.03-113.9.94-98.23,1.62c6.69.29,13.4.2,20.09-.15,6.53-.34,12.77-2.04,19.11-3.63,12.59-3.18,25.05-6.79,37.62-10.07,6.2-1.62,12.58-3.63,18.93-4.54,6.42-.92,13.33-.69,19.8-.59,17.41.27,34.58,3.16,50.81,9.57v-1.55c-16.03-6.92-33.15-10.1-50.56-10.37-6.63-.1-13.69-.27-20.25.78-6.33,1.02-12.66,3.11-18.83,4.84-12.5,3.51-24.89,7.38-37.41,10.78-6.27,1.7-12.49,3.54-19,3.94-6.84.42-13.7.55-20.54.23-15.68-.72-31.02-3.98-45.45-10.21v1.55Z"/>
          <path class="cls-6" d="m-143.9-10.32C-129.54-3.79-114.19-.35-98.45.38c6.85.32,13.71.17,20.54-.29,6.52-.44,12.73-2.35,19-4.12,12.53-3.54,24.91-7.59,37.41-11.24,6.16-1.8,12.49-3.97,18.83-5.03,6.55-1.1,13.62-.96,20.25-.87,17.48.24,34.61,3.6,50.56,10.86v-1.55c-15.93-7.81-33.18-11.45-50.88-11.61-6.57-.06-13.65-.17-20.12,1.04-6.31,1.18-12.6,3.44-18.72,5.34-12.44,3.86-24.74,8.13-37.21,11.87-6.41,1.92-12.73,3.94-19.43,4.44-6.61.5-13.25.68-19.88.39-15.95-.7-31.44-4.44-45.79-11.48v1.55Z"/>
          <path class="cls-6" d="m-143.9-2.74c14.88,4.02,30.16,6.03,45.55,6.59,6.77.24,13.54.23,20.31.04,6.53-.18,12.89-1.47,19.31-2.64C-46.39-1-34.1-3.54-21.76-5.85c6.32-1.19,12.73-2.66,19.13-3.31,6.58-.66,13.41-.42,20.02-.3,17.13.3,34.18,2.25,50.74,6.73v-1.55c-16.57-5.12-33.76-7.36-51.06-7.64-6.54-.11-13.39-.36-19.89.41-6.36.75-12.76,2.41-19.02,3.74C-34.29-5.15-46.68-2.25-59.15.3c-6.39,1.31-12.69,2.69-19.22,2.91-6.74.23-13.48.26-20.22-.02-15.37-.62-30.6-2.93-45.32-7.48v1.55Z"/>
          <path class="cls-6" d="m-143.9-5.27c14.66,4.89,29.9,7.38,45.32,8.03,6.74.28,13.48.24,20.22-.02,6.54-.25,12.83-1.72,19.22-3.11,12.47-2.72,24.85-5.82,37.3-8.64,6.26-1.41,12.65-3.18,19.02-3.99,6.49-.83,13.36-.58,19.89-.47,17.35.28,34.57,2.69,51.06,8.19v-1.55c-16.3-6.05-33.46-8.76-50.81-9.04-6.48-.11-13.37-.36-19.8.52-6.35.86-12.72,2.78-18.93,4.32-12.56,3.11-25.03,6.54-37.62,9.56-6.34,1.52-12.58,3.14-19.11,3.44-6.69.31-13.4.39-20.09.1-15.61-.66-31-3.45-45.67-8.89v1.55Z"/>
          <path class="cls-6" d="m-143.9,2.38c28.03,3.86,56.88,4.87,85.05,2.14,12.4-1.21,24.78-2.56,37.18-3.8C-15.28.07-8.85-.75-2.43-1.08c6.49-.33,13.07-.14,19.56-.07C34.19-.95,51.23.05,68.13,2.38V.82C51.29-2.19,34.23-3.47,17.13-3.71c-6.48-.09-13.09-.31-19.56.11-6.42.42-12.86,1.47-19.24,2.28-12.4,1.59-24.78,3.33-37.18,4.87-6.47.8-12.9,1.68-19.42,1.77-6.62.1-13.24.09-19.85-.08-15.35-.4-30.66-1.72-45.78-4.43v1.55Z"/>
          <path class="cls-6" d="m-143.9-.15c15.08,3.08,30.4,4.59,45.78,5.04,6.62.19,13.24.2,19.85.08,6.53-.12,12.95-1.1,19.42-2.01C-46.44,1.2-34.07-.77-21.67-2.57c6.37-.92,12.82-2.1,19.24-2.58,6.46-.48,13.09-.24,19.56-.15,17.12.25,34.21,1.72,51,5.15v-1.55c-16.63-4.06-33.65-5.82-50.74-6.11-6.61-.11-13.42-.35-20.02.25-6.39.58-12.8,1.93-19.13,3.02C-34.09-2.43-46.39-.12-58.74,1.93c-6.42,1.07-12.79,2.24-19.31,2.4-6.77.16-13.54.17-20.31-.06-15.35-.52-30.62-2.33-45.55-5.98V-.15Z"/>
          <path class="cls-6" d="m-143.9,7.43c53.79,0,107.57,0,161.36,0,16.89,0,33.78,0,50.68,0v-1.55c-16.88-.73-33.78-1.04-50.68-1.11-25.49-.11-50.95,1.01-76.42,1.8-28.29.88-56.66.53-84.93-.69v1.55Z"/>
          <path class="cls-6" d="m-143.9,4.9c28.22,1.97,56.68,2.53,84.93,1.11C-33.49,4.73-8.07,2.93,17.45,3.1c16.91.12,33.81.62,50.68,1.8v-1.55C51.19,1.46,34.17.65,17.13.49c-6.5-.06-13.06-.22-19.56.04-6.42.26-12.84.94-19.24,1.46-12.4,1.01-24.78,2.12-37.18,3.11-28.22,2.24-56.92,1.4-85.05-1.74v1.55Z"/>
        </g>
      </g>
    </g>
  </g>
</svg>