<?xml version="1.0" encoding="UTF-8"?>
<svg id="Layer_6" data-name="Layer 6" xmlns="http://www.w3.org/2000/svg" xmlns:xlink="http://www.w3.org/1999/xlink" viewBox="0 0 19 19">
  <defs>
    <style>
      .cls-1, .cls-2, .cls-3, .cls-4 {
        fill: none;
      }

      .cls-2 {
        opacity: .59;
      }

      .cls-3 {
        clip-path: url(#clippath-1);
      }

      .cls-5 {
        fill: #e54a91;
      }

      .cls-6 {
        fill: #ffa9bc;
      }

      .cls-4 {
        clip-path: url(#clippath);
      }
    </style>
    <clipPath id="clippath">
      <rect class="cls-1" x="-78.86" y="-9.33" width="52.99" height="51.17"/>
    </clipPath>
    <clipPath id="clippath-1">
      <path class="cls-1" d="m-34.81-41.52c-21.33,0-38.62,17.29-38.62,38.62s17.29,38.62,38.62,38.62S3.81,18.43,3.81-2.9-13.48-41.52-34.81-41.52Zm0,57.17c-10.24,0-18.55-8.3-18.55-18.55s8.3-18.55,18.55-18.55S-16.26-13.14-16.26-2.9s-8.3,18.55-18.55,18.55Z"/>
    </clipPath>
  </defs>
  <path class="cls-5" d="m18.56,1.33c-.1-.09-.23-.11-.36-.07L.54,7.96c-.13.05-.21.17-.22.3,0,.14.06.26.18.33l5.68,3.16c.11.06.25.06.36,0l4.24-2.68s-3.12,3.06-3.17,3.11-.13.11-.13.25c0,.16,0,4.99,0,4.99,0,.14.08.27.22.32.04.02.09.03.13.03.09,0,.18-.04.25-.1l2.93-2.97,3.34,1.97c.05.03.12.05.18.05.05,0,.09,0,.13-.03.1-.04.18-.13.2-.23l3.8-14.77c.03-.13,0-.26-.11-.35Z"/>
  <g class="cls-2">
    <g class="cls-4">
      <g class="cls-3">
        <g>
          <path class="cls-6" d="m-142.7-12.39c13.54,9.54,28.99,15.11,45.59,15.63,6.8.21,13.61-.34,20.33-1.37,6.69-1.03,13.01-3.45,19.33-5.85,12.47-4.73,24.64-10.21,37.05-15.1,6.08-2.4,12.31-5.01,18.64-6.65,6.4-1.66,13.43-2.15,20.02-2.31,18.54-.48,35.92,4.97,51.07,15.65v-1.55c-15.19-10.22-32.46-15.39-50.77-15.1-6.47.1-13.29.51-19.62,1.92-6.54,1.46-13.02,4.24-19.26,6.64-12.63,4.86-25.04,10.29-37.74,14.97C-64.27-3.23-70.43-.94-76.99-.03c-6.59.91-13.25,1.38-19.9,1.16-16.56-.55-32.09-5.83-45.81-15.06v1.55Z"/>
          <path class="cls-6" d="m-142.7-7.33c13.23,10.64,28.74,17.13,45.83,17.32,6.69.08,13.37-.71,19.92-2.03,6.54-1.31,12.76-3.67,18.95-6.13C-33.2-8.03-9.1-23.06,18.14-24.53c19.01-1.03,36.43,5.32,51.19,17.2v-1.55c-14.81-11.47-32.12-17.55-50.89-16.77-6.57.27-13.37,1.07-19.73,2.76-6.6,1.75-13.06,4.51-19.36,7.11C-33.04-10.67-45.16-4.92-57.62,0c-6.21,2.45-12.46,4.86-19.03,6.09-6.77,1.27-13.66,2-20.55,1.85-16.85-.36-32.25-6.56-45.5-16.83v1.55Z"/>
          <path class="cls-6" d="m-142.7-9.86C-129.32.25-113.84,6.28-96.99,6.66c6.75.15,13.48-.51,20.12-1.68,6.62-1.17,12.89-3.57,19.14-6,12.69-4.95,25.03-10.75,37.65-15.88,6.17-2.51,12.5-5.25,18.97-6.88,6.4-1.62,13.26-2.33,19.85-2.55,18.59-.62,35.79,5.31,50.59,16.49v-1.55c-15-10.87-32.29-16.5-50.83-15.98-6.58.18-13.54.74-19.93,2.37-6.48,1.65-12.86,4.38-19.05,6.86-12.51,5.01-24.77,10.62-37.35,15.44-6.29,2.41-12.57,4.78-19.24,5.85-6.69,1.07-13.47,1.65-20.24,1.44-16.6-.52-31.97-6.26-45.38-15.98v1.55Z"/>
          <path class="cls-6" d="m-142.7-2.22c12.77,11.48,28.14,18.86,45.52,18.71,13.72-.12,27.01-4.33,39.6-9.46C-32.84-3.05-8.64-18.43,18.54-20.68c19.3-1.6,36.54,5.67,50.78,18.47v-1.55c-14.35-12.5-31.57-19.48-50.72-18.13C-8.71-19.98-32.96-4.54-57.79,5.52c-12.61,5.11-25.77,9.05-39.51,9.03-17.22-.02-32.56-7.13-45.41-18.32v1.55Z"/>
          <path class="cls-6" d="m-142.7-4.75c12.92,11.02,28.26,17.96,45.41,18.06,13.76.08,26.86-3.71,39.51-8.82C-32.95-5.53-8.72-20.9,18.61-22.65c19.07-1.22,36.29,5.59,50.72,17.9v-1.55c-14.61-12.04-31.94-18.6-50.96-17.49C-8.75-22.21-32.75-7.23-57.41,2.71c-12.75,5.14-25.81,8.76-39.67,8.62-17.1-.17-32.53-6.84-45.62-17.62v1.55Z"/>
          <path class="cls-6" d="m-142.7,2.61c13.09,10.79,28.52,17.46,45.62,17.62,13.87.14,26.92-3.48,39.67-8.62C-32.75,1.67-8.75-13.31,18.37-14.89c19.01-1.11,36.35,5.46,50.96,17.49v-1.55c-14.43-12.31-31.65-19.12-50.72-17.9C-8.72-15.1-32.95.27-57.79,10.3c-12.65,5.11-25.75,8.89-39.51,8.82-17.14-.1-32.49-7.04-45.41-18.06v1.55Z"/>
          <path class="cls-6" d="m-142.7.08c12.85,11.19,28.19,18.3,45.41,18.32,13.73.01,26.89-3.93,39.51-9.03C-32.96-.69-8.71-16.13,18.61-18.05,37.76-19.4,54.98-12.42,69.33.08v-1.55c-14.24-12.8-31.49-20.06-50.78-18.47C-8.64-17.69-32.84-2.3-57.58,7.78c-12.59,5.13-25.88,9.34-39.6,9.46-17.39.15-32.76-7.24-45.52-18.71V.08Z"/>
          <path class="cls-6" d="m-142.7,7.66c13.41,9.73,28.77,15.48,45.38,16,6.78.21,13.56-.37,20.24-1.44,6.67-1.07,12.95-3.44,19.24-5.85C-45.26,11.54-33,5.92-20.49.91-14.29-1.57-7.92-4.31-1.44-5.96c6.39-1.63,13.36-2.19,19.93-2.38,18.54-.52,35.84,5.12,50.83,16v-1.55C54.53-5.08,37.33-11.01,18.74-10.39c-6.59.22-13.45.93-19.85,2.56C-7.58-6.2-13.91-3.46-20.08-.95c-12.62,5.13-24.96,10.93-37.65,15.89-6.25,2.44-12.51,4.84-19.14,6.01-6.64,1.17-13.38,1.84-20.12,1.69-16.85-.37-32.33-6.41-45.71-16.53v1.55Z"/>
          <path class="cls-6" d="m-142.7,5.14c13.25,10.28,28.65,16.49,45.5,16.85,6.89.15,13.78-.59,20.55-1.86,6.57-1.24,12.82-3.65,19.03-6.1C-45.16,9.1-33.04,3.35-20.65-1.77-14.35-4.37-7.9-7.13-1.3-8.89c6.37-1.69,13.17-2.49,19.73-2.77,18.78-.79,36.09,5.31,50.89,16.79v-1.55C54.57-8.31,37.16-14.67,18.14-13.63-9.1-12.15-33.2,2.89-58.01,12.75c-6.19,2.46-12.41,4.81-18.95,6.13-6.55,1.32-13.23,2.11-19.92,2.04-17.1-.19-32.6-6.68-45.83-17.34v1.55Z"/>
          <path class="cls-6" d="m-142.7,12.78c13.82,8.56,29.23,13.38,45.47,14.05,6.68.28,13.38-.08,20.02-.85,6.78-.79,13.12-3.07,19.54-5.33,12.41-4.37,24.58-9.4,36.93-13.93C-14.45,4.41-7.94,1.7-1.39.27c6.5-1.42,13.63-1.61,20.26-1.64,17.99-.06,35.15,4.66,50.46,14.14v-1.55C54.05,1.26,36.78-3.73,18.56-3.52c-6.46.08-13.29.42-19.62,1.78C-7.6-.32-14.08,2.45-20.32,4.8c-12.63,4.77-25.04,10.1-37.74,14.7-6.21,2.25-12.36,4.51-18.93,5.36-6.59.86-13.25,1.29-19.9,1.05-16.48-.58-32.01-5.68-45.81-14.69v1.55Z"/>
          <path class="cls-6" d="m-142.7,10.19c13.72,9.25,29.25,14.54,45.81,15.09,6.65.22,13.31-.25,19.9-1.17,6.57-.91,12.73-3.2,18.93-5.48,12.7-4.68,25.11-10.13,37.74-14.99C-14.08,1.24-7.6-1.55-1.06-3.01c6.33-1.41,13.16-1.82,19.62-1.93C36.87-5.23,54.14-.04,69.33,10.19v-1.55C54.19-2.05,36.8-7.51,18.26-7.03c-6.59.17-13.62.66-20.02,2.32C-8.1-3.06-14.32-.45-20.41,1.95c-12.41,4.9-24.58,10.38-37.05,15.12-6.31,2.4-12.63,4.82-19.33,5.85-6.72,1.04-13.53,1.59-20.33,1.38-16.61-.52-32.06-6.1-45.59-15.65v1.55Z"/>
          <path class="cls-6" d="m-142.7,17.83c14.23,7.22,29.65,11.1,45.57,11.82,6.77.31,13.56.1,20.32-.45,6.65-.54,12.96-2.63,19.32-4.59,12.41-3.82,24.64-8.18,37.01-12.13,6.23-1.98,12.7-4.44,19.14-5.59,6.29-1.12,13.11-1.07,19.48-1.04,17.85.1,35.23,3.86,51.19,11.96v-1.55C53.57,7.73,36.27,3.67,18.38,3.61c-6.51-.02-13.51,0-19.91,1.28-6.44,1.29-12.82,3.72-19.04,5.8-12.48,4.18-24.8,8.81-37.33,12.84-6.15,1.98-12.25,4.09-18.7,4.69-6.9.64-13.84.91-20.76.59-15.95-.74-31.3-4.91-45.35-12.53v1.55Z"/>
          <path class="cls-6" d="m-142.7,15.3c13.97,7.88,29.33,12.23,45.35,12.97,6.93.32,13.87.02,20.76-.67,6.46-.65,12.56-2.8,18.7-4.83,12.53-4.15,24.85-8.91,37.33-13.21C-14.36,7.42-7.97,4.94-1.53,3.6c6.39-1.33,13.4-1.39,19.91-1.39,17.96,0,35.27,4.25,50.94,13.09v-1.55C53.86,4.5,36.62-.04,18.63,0,11.98.02,4.79.15-1.72,1.61c-6.24,1.4-12.42,3.86-18.43,6.01-12.59,4.5-24.99,9.51-37.63,13.86-6.28,2.16-12.5,4.39-19.12,5.12-6.67.74-13.4,1.07-20.11.8-16.25-.66-31.73-5.3-45.69-13.65v1.55Z"/>
          <path class="cls-6" d="m-142.7,22.66c14.61,5.77,30,8.73,45.67,9.42,6.69.29,13.4.2,20.09-.15,6.53-.34,12.77-2.04,19.11-3.63,12.59-3.18,25.05-6.79,37.62-10.07,6.2-1.62,12.58-3.63,18.93-4.54,6.42-.92,13.33-.69,19.8-.59,17.41.27,34.58,3.16,50.81,9.57v-1.55c-16.03-6.92-33.15-10.1-50.56-10.37-6.63-.1-13.69-.27-20.25.78-6.33,1.02-12.66,3.11-18.83,4.84-12.5,3.51-24.89,7.38-37.41,10.78-6.27,1.7-12.49,3.54-19,3.94-6.84.42-13.7.55-20.54.23-15.68-.72-31.02-3.98-45.45-10.21v1.55Z"/>
          <path class="cls-6" d="m-142.7,20.13c14.36,6.53,29.71,9.97,45.45,10.7,6.85.32,13.71.17,20.54-.29,6.52-.44,12.73-2.35,19-4.12,12.53-3.54,24.91-7.59,37.41-11.24,6.16-1.8,12.49-3.97,18.83-5.03,6.55-1.1,13.62-.96,20.25-.87,17.48.24,34.61,3.6,50.56,10.86v-1.55c-15.93-7.81-33.18-11.45-50.88-11.61-6.57-.06-13.65-.17-20.12,1.04-6.31,1.18-12.6,3.44-18.72,5.34-12.44,3.86-24.74,8.13-37.21,11.87-6.41,1.92-12.73,3.94-19.43,4.44-6.61.5-13.25.68-19.88.39-15.95-.7-31.44-4.44-45.79-11.48v1.55Z"/>
          <path class="cls-6" d="m-142.7,27.71c14.88,4.02,30.16,6.03,45.55,6.59,6.77.24,13.54.23,20.31.04,6.53-.18,12.89-1.47,19.31-2.64,12.35-2.25,24.64-4.79,36.98-7.11,6.32-1.19,12.73-2.66,19.13-3.31,6.58-.66,13.41-.42,20.02-.3,17.13.3,34.18,2.25,50.74,6.73v-1.55c-16.57-5.12-33.76-7.36-51.06-7.64-6.54-.11-13.39-.36-19.89.41-6.36.75-12.76,2.41-19.02,3.74-12.45,2.64-24.84,5.53-37.3,8.08-6.39,1.31-12.69,2.69-19.22,2.91-6.74.23-13.48.26-20.22-.02-15.37-.62-30.6-2.93-45.32-7.48v1.55Z"/>
          <path class="cls-6" d="m-142.7,25.18c14.66,4.89,29.9,7.38,45.32,8.03,6.74.28,13.48.24,20.22-.02,6.54-.25,12.83-1.72,19.22-3.11,12.47-2.72,24.85-5.82,37.3-8.64,6.26-1.41,12.65-3.18,19.02-3.99,6.49-.83,13.36-.58,19.89-.47,17.35.28,34.57,2.69,51.06,8.19v-1.55c-16.3-6.05-33.46-8.76-50.81-9.04-6.48-.11-13.37-.36-19.8.52-6.35.86-12.72,2.78-18.93,4.32-12.56,3.11-25.03,6.54-37.62,9.56-6.34,1.52-12.58,3.14-19.11,3.44-6.69.31-13.4.39-20.09.1-15.61-.66-31-3.45-45.67-8.89v1.55Z"/>
        </g>
      </g>
    </g>
  </g>
</svg>